<svg version="1.2" baseProfile="tiny-ps" xmlns="http://www.w3.org/2000/svg" viewBox="0 0 167 64" width="167" height="64">
	<title>rss-svg</title>
	<style>
		tspan { white-space:pre }
		.s0 { fill: #ffffff } 
	</style>
	<path id="Layer" fill-rule="evenodd" class="s0" d="m89.93 3c7.28-1.68 13.87 1.19 14.7 6.39l0.18 1.12l-2.84 0.19c-4.91 0.32-4.83 0.33-5.25-0.83c-0.72-1.99-3.94-2.88-5.41-1.5c-1.55 1.45-0.61 2.25 4.01 3.38c4.96 1.22 6.42 1.86 8.23 3.61c0.88 0.84 1.61 1.5 1.63 1.46c0.02-0.04 0.47-0.84 1-1.78c8.16-14.66 29.57-14.43 31.73 0.34c0.82 5.62-2.38 12.64-7.54 16.49l-1.66 1.24l1.63 0.34c3.03 0.62 6.12 2.77 7.7 5.36c0.28 0.46 0.34 0.02 0.36-2.37l0.02-2.93h8.35v19.17h12.38v6.58h-20.73v-6.12l-0.82 1.28c-4.4 6.89-17.78 7.09-22.53 0.33c-3.11-4.42-3.02-12.93 0.18-17.09l0.97-1.26l-1.64-0.33c-5.1-1.03-9.54-5.11-10.28-9.45l-0.2-1.18l-1.05 1.02c-3.59 3.47-14.06 3.8-17.87 0.57c-1.28-1.09-2.79-3.89-3.07-5.71l-0.18-1.18l3.76-0.21c4.24-0.23 4.23-0.24 4.48 1.11c0.51 2.69 4.56 3.93 6.62 2.02c1.82-1.68 0.51-3.41-3.34-4.4c-7.92-2.05-10.39-4.07-10.37-8.45c0.02-3.76 2.28-6.14 6.82-7.19l0 0zm-88.24 0.16h8.33c4.79 0 8.94 0.13 9.76 0.3c6.49 1.38 7.61 10.21 1.69 13.29l-1.6 0.83l0.79 0.48c1.44 0.87 6.65 9.24 6.65 10.69c0 0.09-2.09 0.14-4.64 0.09l-4.64-0.08l-2.41-4.43c-2.58-4.74-3.39-5.72-4.73-5.72h-0.85v10.3h-8.35l0-25.75zm126.4 2.25c-7.84-2.03-17.73 2.8-21.6 10.55c-6.63 13.29 5.8 24.38 19.75 17.62c13.69-6.63 14.88-24.8 1.85-28.18l0 0zm-112.3 3.56c-0.41-0.21-1.79-0.36-3.23-0.36l-2.52 0v4.94l2.59-0.15c4.15-0.23 6.1-2.95 3.17-4.43v0zm107.69 2.28c1.34-0.36 3.43 0.29 3.43 1.06c0 0.52-2.36 2.07-2.67 1.76c-0.76-0.76-2.51 0.05-2.51 1.16c0 0.71 0.55 0.67 3.12-0.21c6.42-2.2 8.18 4.38 1.99 7.45c-1.95 0.97-5.13 0.49-5.1-0.76c0.02-0.83 2.36-2.22 2.99-1.78c1.26 0.88 3.42-0.37 2.76-1.59c-0.39-0.72-0.92-0.72-3.02 0c-3.43 1.17-5.62 0.2-5.61-2.52c0-1.66 2.33-3.96 4.63-4.57l0 0zm-9.29 6.18c1.52-1.09 1.64-1.02 4.16 2.64c3.25 4.72 3.25 6.13-0.02 8.42c-2.98 2.08-6.98 0.15-4.35-2.09c1.04-0.89 1.16-0.92 1.6-0.49c0.69 0.69 1.68 0.45 1.78-0.42c0.06-0.51-0.54-1.59-2.09-3.78c-2.52-3.55-2.45-3.3-1.08-4.29l0 0zm-105.67 15.79c5.69-0.89 11.17 0.62 12.91 3.57l0.7 1.18l1.68-1.62c6.02-5.82 17.38-4.12 20.76 3.1c0.85 1.82 1.01 1.68-2.72 2.51c-3.92 0.88-3.69 0.91-4.56-0.56c-2.07-3.51-7.18-2.68-8.39 1.36c-0.5 1.67-0.56 5.56-0.1 7.18c1.33 4.78 7.41 4.73 9.02-0.08l0.47-1.41l3.52 1.06c3.49 1.05 3.52 1.07 3.42 1.88c-0.13 1.15-1.42 3.66-2.56 4.99c-3.92 4.55-15.85 4.23-19.38-0.52l-0.61-0.82l-1.66 1.65c-2.43 2.41-4.34 2.95-9.9 2.77c-7.01-0.22-10.16-2.46-11.02-7.83l-0.19-1.17l3.77-0.2c4.25-0.23 4.22-0.24 4.47 1.07c0.7 3.74 7.37 4.11 7.37 0.41c0-1.31-1.32-2.08-5.34-3.08c-6.55-1.63-9.2-3.94-9.16-7.99c0.04-3.97 2.79-6.71 7.5-7.45l0 0zm79.53 0c3.43-0.59 8.15 0 10.84 1.37c6.97 3.53 8.17 16.32 2.06 21.94c-5.28 4.86-16.88 3.87-20.63-1.76l-0.9-1.35v5.82h-8.35v-10.3h-8.35v10.3h-8.35v-25.75h8.35v8.87h8.35v-8.87h8.35l0.02 2.79c0.02 2.71 0.03 2.77 0.5 2.08c1.78-2.59 4.93-4.59 8.12-5.14l0 0zm-74.85 5.28c-2.03-1.04-4.91 0-4.5 1.64c0.22 0.88 0.77 1.11 5.12 2.2c1.84 0.46 3.97 1.11 4.73 1.44c1.61 0.71 1.72 0.64 1.97-1.29l0.18-1.46l-5.62 0.27l-0.53-1.18c-0.31-0.69-0.87-1.36-1.35-1.61l0 0zm79.79 1.01c-4.91-1.35-8.13 3.81-6.39 10.24c0.88 3.23 4.61 4.7 7.57 2.98c3.95-2.31 3.09-12.04-1.17-13.21zm34.81-0.01c-4.17-1.15-6.75 1.46-6.77 6.87c-0.02 5.2 2.64 7.97 6.64 6.9c4.98-1.33 5.08-12.4 0.13-13.76l0 0z" />
</svg>